<?xml version="1.0" encoding="UTF-8"?>
<svg id="Camada_1" xmlns="http://www.w3.org/2000/svg" version="1.1" xmlns:xlink="http://www.w3.org/1999/xlink" viewBox="0 0 234.55 129.57">
  <!-- Generator: Adobe Illustrator 30.3.0, SVG Export Plug-In . SVG Version: 2.1.3 Build 182)  -->
  <defs>
    <style>
      .st0 {
        fill: url(#Gradiente_sem_nome_173);
      }
    </style>
    <linearGradient id="Gradiente_sem_nome_173" data-name="Gradiente sem nome 173" x1="30.52" y1="64.84" x2="202.46" y2="64.84" gradientUnits="userSpaceOnUse">
      <stop offset="0" stop-color="#00167f"/>
      <stop offset="1" stop-color="#006dff"/>
    </linearGradient>
  </defs>
  <path class="st0" d="M191,86.33l-1.81,9.02c-.62,3.08-3.32,5.3-6.46,5.3h-66.25l2.87-14.32h71.65ZM125.08,57.69l-2.86,14.31h66.25c3.14,0,5.85-2.22,6.46-5.3l1.8-9.01h-71.65ZM130.82,29.05l-2.87,14.32h66.25c3.14,0,5.84-2.22,6.46-5.3l1.81-9.02h-71.65ZM50.25,29.05c-3.14,0-5.84,2.22-6.46,5.3l-1.81,9.02h0s-2.87,14.32-2.87,14.32h0s-2.86,14.32-2.86,14.32h0s-2.86,14.32-2.86,14.32h0s-2.87,14.33-2.87,14.33h14.33l2.87-14.32h0s2.86-14.32,2.86-14.32h0s2.86-14.32,2.86-14.32h0s2.87-14.32,2.87-14.32h0s2.87-14.33,2.87-14.33h-8.93ZM78.9,29.05c-3.14,0-5.84,2.22-6.46,5.3l-1.81,9.02h0s-2.87,14.32-2.87,14.32h0s-2.86,14.32-2.86,14.32h0s-2.86,14.32-2.86,14.32h0s-2.87,14.33-2.87,14.33h14.33l2.87-14.32h0s2.86-14.32,2.86-14.32h0s2.86-14.32,2.86-14.32h0s2.87-14.32,2.87-14.32h0s2.87-14.33,2.87-14.33h-8.93ZM107.56,29.05c-3.14,0-5.84,2.22-6.46,5.3l-1.81,9.02h0s-2.87,14.32-2.87,14.32h0s-2.86,14.32-2.86,14.32h0s-2.86,14.32-2.86,14.32h0s-2.87,14.33-2.87,14.33h14.33l2.87-14.32h0s2.86-14.32,2.86-14.32h0s2.86-14.32,2.86-14.32h0s2.87-14.32,2.87-14.32h0s2.87-14.33,2.87-14.33h-8.93Z"/>
</svg>