<?xml version="1.0" encoding="UTF-8"?>
<svg id="Camada_1" xmlns="http://www.w3.org/2000/svg" version="1.1" xmlns:xlink="http://www.w3.org/1999/xlink" viewBox="0 0 549.33 129.57">
  <!-- Generator: Adobe Illustrator 30.3.0, SVG Export Plug-In . SVG Version: 2.1.3 Build 182)  -->
  <defs>
    <style>
      .st0 {
        fill: #282828;
      }

      .st1 {
        fill: url(#Gradiente_sem_nome_173);
      }
    </style>
    <linearGradient id="Gradiente_sem_nome_173" data-name="Gradiente sem nome 173" x1="30.52" y1="64.84" x2="202.46" y2="64.84" gradientUnits="userSpaceOnUse">
      <stop offset="0" stop-color="#00167f"/>
      <stop offset="1" stop-color="#006dff"/>
    </linearGradient>
  </defs>
  <path class="st1" d="M191,86.33l-1.81,9.02c-.62,3.08-3.32,5.3-6.46,5.3h-66.25l2.87-14.32h71.65ZM125.08,57.69l-2.86,14.31h66.25c3.14,0,5.85-2.22,6.46-5.3l1.8-9.01h-71.65ZM130.82,29.05l-2.87,14.32h66.25c3.14,0,5.84-2.22,6.46-5.3l1.81-9.02h-71.65ZM50.25,29.05c-3.14,0-5.84,2.22-6.46,5.3l-1.81,9.02h0s-2.87,14.32-2.87,14.32h0s-2.86,14.32-2.86,14.32h0s-2.86,14.32-2.86,14.32h0s-2.87,14.33-2.87,14.33h14.33l2.87-14.32h0s2.86-14.32,2.86-14.32h0s2.86-14.32,2.86-14.32h0s2.87-14.32,2.87-14.32h0s2.87-14.33,2.87-14.33h-8.93ZM78.9,29.05c-3.14,0-5.84,2.22-6.46,5.3l-1.81,9.02h0s-2.87,14.32-2.87,14.32h0s-2.86,14.32-2.86,14.32h0s-2.86,14.32-2.86,14.32h0s-2.87,14.33-2.87,14.33h14.33l2.87-14.32h0s2.86-14.32,2.86-14.32h0s2.86-14.32,2.86-14.32h0s2.87-14.32,2.87-14.32h0s2.87-14.33,2.87-14.33h-8.93ZM107.56,29.05c-3.14,0-5.84,2.22-6.46,5.3l-1.81,9.02h0s-2.87,14.32-2.87,14.32h0s-2.86,14.32-2.86,14.32h0s-2.86,14.32-2.86,14.32h0s-2.87,14.33-2.87,14.33h14.33l2.87-14.32h0s2.86-14.32,2.86-14.32h0s2.86-14.32,2.86-14.32h0s2.87-14.32,2.87-14.32h0s2.87-14.33,2.87-14.33h-8.93Z"/>
  <g>
    <g>
      <path class="st0" d="M274.17,80.19l-1-29.59-18.02,24.76c-2.17,2.98-4.47,4.82-7.59,4.82s-4.66-1.84-5.6-4.82l-7.74-24.76-12.91,29.59h-12.84l21.67-47.68c1.65-3.55,4.14-3.47,7.48-3.47,2.77,0,4.78,4.35,5.57,7.05l8.83,24.51,20.76-26.51c1.9-2.7,4.29-5.05,7.06-5.05,3.12,0,4.82-.08,5.01,3.47l2.24,47.68h-12.91Z"/>
      <path class="st0" d="M347.67,29.05h12.77l-5.94,27.66c-3.29,15.96-13,23.48-33.65,23.48s-27.26-7.52-23.96-23.48l5.94-27.66h13.55l-5.94,27.66c-1.62,7.88,1.16,10.57,13.5,10.57s16.17-2.7,17.79-10.57l5.94-27.66Z"/>
      <path class="st0" d="M379.46,48.55l-6.38,31.64h-12.49l9.19-45.27c.98-4.75,4.15-5.88,8.12-5.88,1.92,0,3.13,1.49,4.57,3.12l25.29,26.03,6.38-29.15h12.49l-9.32,43.41c-.98,4.75-4.22,7.73-8.12,7.73-1.92,0-3.2-.64-4.57-2.27l-25.16-29.37Z"/>
      <path class="st0" d="M427.44,80.19l10.63-51.15,31.25-.12c15.04,0,23.53,9.97,20.45,24.95-3.09,14.97-16.35,26.32-31.39,26.32h-30.94ZM461.08,67.07c7.38,0,13.91-5.18,15.43-12.56s-2.82-12.84-10.19-12.84h-17.88l-5.24,25.4h17.88Z"/>
      <path class="st0" d="M495.05,80.19l10.63-51.15h13.13l-10.63,51.15h-13.13Z"/>
    </g>
    <g>
      <path class="st0" d="M208.47,100.64l2.11-10.22h8.82l-.19.94h-7.86l-1.72,8.34h7.87l-.19.94h-8.83ZM211.76,95.87l.18-.89h6.13l-.18.89h-6.13Z"/>
      <path class="st0" d="M250.58,100.64l2.11-10.22h.96l-1.91,9.28h7.4l-.19.94h-8.35Z"/>
      <path class="st0" d="M290.3,100.64l2.11-10.22h8.82l-.19.94h-7.86l-1.72,8.34h7.87l-.19.94h-8.83ZM293.59,95.87l.18-.89h6.13l-.18.89h-6.13Z"/>
      <path class="st0" d="M334.63,100.64l1.91-9.28h-4.13l.19-.94h9.21l-.19.94h-4.13l-1.91,9.28h-.94Z"/>
      <path class="st0" d="M383.23,100.64l-2.24-3.04c-.13.01-.23.01-.3.01h-4.78l.18-.87h4.78c1.79,0,2.84-.94,3.21-2.73.36-1.76-.38-2.64-2-2.64h-6.23l-1.91,9.27h-.94l2.11-10.22h7.17c2.21,0,3.21,1.36,2.75,3.6-.37,1.79-1.41,2.97-2.93,3.42l2.5,3.21h-1.36Z"/>
      <path class="st0" d="M416.31,100.64l2.11-10.22h.96l-2.11,10.22h-.96Z"/>
      <path class="st0" d="M454.4,100.64c-2.77,0-4.33-2.25-3.72-5.22.62-3.01,3.06-5.01,5.83-5.01h5.34l-.19.94h-5.34c-2.22,0-4.18,1.67-4.69,4.11s.74,4.23,2.97,4.23h5.34l-.19.94h-5.34Z"/>
      <path class="st0" d="M493.03,100.64l.19-.94h7.55c1.32,0,2.17-.82,2.4-1.94.26-1.27-.32-1.88-1.61-1.88h-4.85c-1.77,0-2.62-1.15-2.29-2.74s1.57-2.71,3.43-2.71h7.26l-.19.94h-7.26c-1.21,0-2.04.77-2.26,1.83s.35,1.8,1.5,1.8h4.85c1.9,0,2.71.93,2.32,2.8-.34,1.63-1.53,2.85-3.49,2.85h-7.55Z"/>
    </g>
  </g>
</svg>